Coordinates
version=1
nRows=5
nColumns=107
inDegrees=yes

Units are S.I. units (second, meters, Newtons, ...)
If the header above contains a line with 'inDegrees', this indicates whether rotational values are in degrees (yes) or radians (no).

endheader
time	sternoclavicular_r2	sternoclavicular_r3	unrotscap_r3	unrotscap_r2	acromioclavicular_r2	acromioclavicular_r3	acromioclavicular_r1	unrothum_r1	unrothum_r3	unrothum_r2	elv_angle	shoulder_elv	shoulder1_r2	shoulder_rot	elbow_flexion	pro_sup	deviation	flexion	proximal_distal_r1	proximal_distal_r3	cmc_flexion	cmc_abduction	mp_flexion	ip_flexion	mcp2_flexion	mcp2_abduction	pm2_flexion	md2_flexion	mcp3_flexion	mcp3_abduction	pm3_flexion	md3_flexion	mcp4_flexion	mcp4_abduction	pm4_flexion	md4_flexion	mcp5_flexion	mcp5_abduction	pm5_flexion	md5_flexion	bicpt_tx	bicpt_ty	bicpt_tz	bicpt2_tx	bicpt2_ty	bicpt2_tz	ptpt_tx	ptpt_ty	ptpt_tz	FCUpt_tx	FCUpt_ty	FCUpt_tz	EDCpt_tx	EDCpt_ty	EDCpt_tz	APLpt_tx	APLpt_ty	APLpt_tz	FPLpt_tx	FPLpt_ty	FPLpt_tz	FPLpt2_tx	FPLpt2_ty	FPLpt2_tz	PEC1pt2_tx	PEC1pt2_ty	PEC1pt2_tz	PEC1pt3_tx	PEC1pt3_ty	PEC1pt3_tz	PEC2pt2_tx	PEC2pt2_ty	PEC2pt2_tz	PEC2pt3_tx	PEC2pt3_ty	PEC2pt3_tz	PEC3pt2_tx	PEC3pt2_ty	PEC3pt2_tz	PEC3pt3_tx	PEC3pt3_ty	PEC3pt3_tz	DELT2pt2a_tx	DELT2pt2a_ty	DELT2pt2a_tz	DELT2pt2_tx	DELT2pt2_ty	DELT2pt2_tz	LAT1pt2_tx	LAT1pt2_ty	LAT1pt2_tz	LAT1pt3_tx	LAT1pt3_ty	LAT1pt3_tz	LAT2pt2_tx	LAT2pt2_ty	LAT2pt2_tz	LAT2pt3_tx	LAT2pt3_ty	LAT2pt3_tz	LAT3pt2_tx	LAT3pt2_ty	LAT3pt2_tz	LAT3pt3_tx	LAT3pt3_ty	LAT3pt3_tz
      0.00000000	     -0.32716720	      0.13857258	     -0.13857258	      0.32716720	     -0.06624470	      0.53536638	      0.24064350	     -0.24064350	     -0.53536638	      0.06624470	     98.64522508	     77.45974228	     -1.72168397	    -19.30523716	     28.35801624	     30.05440264	      0.10647987	     -0.13424719	      0.13522831	     -0.06712359	     32.76638351	     15.67767290	      1.32088880	      8.01919366	     -5.34044430	     11.19563383	     14.76089533	    -13.20597990	    -16.30600462	     -3.31760749	     10.48583402	     13.73456228	    -22.09784694	     -3.64115047	     -7.58009811	     18.67288843	    -31.10875331	    -13.68154777	     -7.73951798	      4.96567302	      0.00083800	     -0.03085026	     -0.00482353	      0.01644268	     -0.01790359	     -0.00846239	      0.00532932	     -0.06633593	     -0.00247104	      0.00679419	     -0.18368791	     -0.00027857	     -0.00360652	      0.00099093	      0.00019102	      0.00012226	      0.00004890	      0.00024452	      0.00015649	      0.00046948	      0.00026409	     -0.00001154	     -0.00022270	     -0.00026724	      0.00253896	      0.00890788	      0.00619678	     -0.00830541	      0.02005348	     -0.01902069	      0.00253896	      0.00890788	      0.00619678	      0.00055943	      0.01859035	     -0.00976854	      0.00399657	      0.00495356	      0.01608529	      0.00000000	      0.00802613	      0.00000000	     -0.00727262	     -0.03360895	     -0.00661926	      0.01337211	     -0.00041069	     -0.00306083	     -0.00090370	      0.01514770	     -0.00619678	      0.00249593	      0.02186088	     -0.01807396	     -0.00606768	      0.01312513	     -0.00555129	     -0.01265177	      0.02771340	     -0.03102696	     -0.02375434	      0.01467433	     -0.00744475	     -0.01575016	      0.03201672	     -0.03877294
      0.03333333	     -0.32712873	      0.13855629	     -0.13855629	      0.32712873	     -0.06623691	      0.53530344	      0.24061521	     -0.24061521	     -0.53530344	      0.06623691	     98.63781836	     77.45063543	     -1.72155470	    -19.30812287	     28.35054758	     30.05148166	      0.10648214	     -0.13422962	      0.13523065	     -0.06711481	     32.76636688	     15.67808521	      1.32095138	      8.01936300	     -5.34076463	     11.19657453	     14.76067820	    -13.20614683	    -16.30565294	     -3.31831994	     10.48604481	     13.73453115	    -22.10077454	     -3.64291454	     -7.58121172	     18.67265609	    -31.10382163	    -13.68152998	     -7.73773845	      4.96590531	      0.00083775	     -0.03084941	     -0.00482339	      0.01644261	     -0.01790157	     -0.00846266	      0.00532953	     -0.06633579	     -0.00247081	      0.00679391	     -0.18368797	     -0.00027853	     -0.00360617	      0.00099082	      0.00019102	      0.00012225	      0.00004890	      0.00024449	      0.00015648	      0.00046943	      0.00026405	     -0.00001154	     -0.00022270	     -0.00026723	      0.00253866	      0.00890683	      0.00619606	     -0.00830444	      0.02005113	     -0.01901845	      0.00253866	      0.00890683	      0.00619606	      0.00055937	      0.01858817	     -0.00976739	      0.00399623	      0.00495298	      0.01608447	      0.00000000	      0.00802423	      0.00000000	     -0.00727176	     -0.03360500	     -0.00661768	      0.01337380	     -0.00041078	     -0.00306181	     -0.00090359	      0.01514591	     -0.00619606	      0.00249563	      0.02185831	     -0.01807183	     -0.00606697	      0.01312359	     -0.00555063	     -0.01265028	      0.02771014	     -0.03102331	     -0.02375155	      0.01467260	     -0.00744387	     -0.01574831	      0.03201296	     -0.03876838
      0.06666667	     -0.32601266	      0.13808358	     -0.13808358	      0.32601266	     -0.06601093	      0.53347714	      0.23979430	     -0.23979430	     -0.53347714	      0.06601093	     98.89697182	     77.18639544	     -1.72607778	    -20.71434064	     28.41995212	     31.36585587	      0.10586675	     -0.12020982	      0.13450248	     -0.06010491	     32.35467607	     16.15832724	      2.07131580	      7.65854368	     -5.20376289	     11.56186461	     14.52047457	    -14.23661534	    -16.31859991	     -3.42675193	     10.52674478	     13.21940543	    -22.90398360	     -4.19947579	     -7.59998932	     19.38563637	    -29.96899544	    -13.66308495	     -7.85428272	      4.98166922	      0.00084004	     -0.03085736	     -0.00482468	      0.01647300	     -0.01792042	     -0.00833948	      0.00523242	     -0.06639859	     -0.00257669	      0.00692247	     -0.18366409	     -0.00029706	     -0.00376389	      0.00104052	      0.00018820	      0.00011089	      0.00004436	      0.00022178	      0.00014194	      0.00042582	      0.00023952	     -0.00001120	     -0.00022730	     -0.00027276	      0.00253000	      0.00887644	      0.00617492	     -0.00827610	      0.01998272	     -0.01895356	      0.00253000	      0.00887644	      0.00617492	      0.00055746	      0.01852475	     -0.00973407	      0.00398634	      0.00493608	      0.01606074	      0.00000000	      0.00796917	      0.00000000	     -0.00724695	     -0.03349035	     -0.00657199	      0.01418506	     -0.00045398	     -0.00355017	     -0.00090051	      0.01509424	     -0.00617492	      0.00248712	      0.02178373	     -0.01801017	     -0.00604627	      0.01307882	     -0.00553170	     -0.01260712	      0.02761560	     -0.03091747	     -0.02367051	      0.01462255	     -0.00741848	     -0.01569458	      0.03190374	     -0.03863611
      0.10000000	     -0.32712667	      0.13855542	     -0.13855542	      0.32712667	     -0.06623650	      0.53530007	      0.24061370	     -0.24061370	     -0.53530007	      0.06623650	     98.68977040	     77.45014699	     -1.72246143	    -19.45972109	     28.37711788	     30.68234353	      0.11906089	     -0.10300437	      0.14997970	     -0.05150218	     32.64484079	     15.88379322	      2.91332311	      5.13302765	     -5.85080941	     11.84582042	     15.58097470	    -15.62236145	    -16.06506979	     -3.56265817	      9.55552062	     13.97497036	    -23.32980712	     -4.46629830	     -7.86940809	     22.02674114	    -29.61379511	    -13.68307000	     -7.20932192	      4.99611514	      0.00083863	     -0.03085245	     -0.00482388	      0.01645769	     -0.01790878	     -0.00840384	      0.00528292	     -0.06636593	     -0.00252163	      0.00685555	     -0.18367657	     -0.00028758	     -0.00368187	      0.00101461	      0.00018978	      0.00009650	      0.00003860	      0.00019301	      0.00012352	      0.00037057	      0.00020845	     -0.00001145	     -0.00022408	     -0.00026889	      0.00253865	      0.00890677	      0.00619602	     -0.00830438	      0.02005100	     -0.01901833	      0.00253865	      0.00890677	      0.00619602	      0.00055936	      0.01858805	     -0.00976733	      0.00399621	      0.00495294	      0.01608443	      0.00000000	      0.00802413	      0.00000000	     -0.00727171	     -0.03360479	     -0.00661760	      0.01346255	     -0.00041540	     -0.00311292	     -0.00090359	      0.01514582	     -0.00619602	      0.00249562	      0.02185817	     -0.01807172	     -0.00606693	      0.01312351	     -0.00555060	     -0.01265020	      0.02770996	     -0.03102311	     -0.02375140	      0.01467251	     -0.00744383	     -0.01574821	      0.03201275	     -0.03876813
      0.13333333	     -0.32647110	      0.13827775	     -0.13827775	      0.32647110	     -0.06610376	      0.53422732	      0.24013150	     -0.24013150	     -0.53422732	      0.06610376	     98.78785511	     77.29493588	     -1.72417333	    -20.20097435	     28.49619136	     31.36616875	      0.12021704	     -0.09401353	      0.15132227	     -0.04700677	     31.83469024	     15.89912935	      4.13049800	      5.69217494	     -5.33530934	     11.86307030	     15.24319581	    -17.18432805	    -16.06089794	     -3.53664023	      9.88184602	     13.22075864	    -23.29268019	     -4.58957109	     -7.87139813	     21.71671396	    -29.23624613	    -13.67962820	     -7.31588806	      4.95158339	      0.00084257	     -0.03086610	     -0.00482608	      0.01647304	     -0.01794113	     -0.00833946	      0.00523239	     -0.06639860	     -0.00257671	      0.00692249	     -0.18366409	     -0.00029707	     -0.00376393	      0.00104053	      0.00018821	      0.00008879	      0.00003552	      0.00017758	      0.00011365	      0.00034095	      0.00019178	     -0.00001071	     -0.00023285	     -0.00027942	      0.00253356	      0.00888893	      0.00618360	     -0.00828774	      0.02001082	     -0.01898022	      0.00253356	      0.00888893	      0.00618360	      0.00055824	      0.01855080	     -0.00974776	      0.00399041	      0.00494302	      0.01607051	      0.00000000	      0.00799177	      0.00000000	     -0.00725714	     -0.03353744	     -0.00659074	      0.01389196	     -0.00043812	     -0.00336827	     -0.00090178	      0.01511547	     -0.00618360	      0.00249062	      0.02181437	     -0.01803550	     -0.00605478	      0.01309721	     -0.00553948	     -0.01262485	      0.02765443	     -0.03096094	     -0.02370380	      0.01464311	     -0.00742891	     -0.01571665	      0.03194860	     -0.03869044
